<svg xmlns="http://www.w3.org/2000/svg" xmlns:xlink="http://www.w3.org/1999/xlink" width="1366" zoomAndPan="magnify" viewBox="0 0 1024.5 576" height="768" preserveAspectRatio="xMidYMid meet" version="1.0"><defs><clipPath id="c0fbd0f9ed"><path d="M 0 0.140625 L 1024 0.140625 L 1024 575.859375 L 0 575.859375 Z M 0 0.140625 " clip-rule="nonzero"/></clipPath><clipPath id="38718248df"><path d="M 822.191406 108.460938 L 845.441406 108.460938 L 845.441406 131.710938 L 822.191406 131.710938 Z M 822.191406 108.460938 " clip-rule="nonzero"/></clipPath><clipPath id="7d5f3a068b"><path d="M 810.421875 379.503906 L 833.671875 379.503906 L 833.671875 402.753906 L 810.421875 402.753906 Z M 810.421875 379.503906 " clip-rule="nonzero"/></clipPath><clipPath id="217a3df332"><path d="M 1000.390625 173.378906 L 1017.640625 173.378906 L 1017.640625 190.628906 L 1000.390625 190.628906 Z M 1000.390625 173.378906 " clip-rule="nonzero"/></clipPath><clipPath id="4a9fab37fd"><path d="M 965.410156 554.453125 L 982.660156 554.453125 L 982.660156 571.703125 L 965.410156 571.703125 Z M 965.410156 554.453125 " clip-rule="nonzero"/></clipPath><clipPath id="4171e9fdae"><path d="M 874.042969 467.0625 L 891.292969 467.0625 L 891.292969 484.3125 L 874.042969 484.3125 Z M 874.042969 467.0625 " clip-rule="nonzero"/></clipPath><clipPath id="7a45beedad"><path d="M 963.800781 96.015625 L 984 96.015625 L 984 110 L 963.800781 110 Z M 963.800781 96.015625 " clip-rule="nonzero"/></clipPath><clipPath id="6f52080d65"><path d="M 963.800781 106 L 984 106 L 984 120.765625 L 963.800781 120.765625 Z M 963.800781 106 " clip-rule="nonzero"/></clipPath><clipPath id="109e01de7d"><path d="M 872.4375 8.621094 L 892.6875 8.621094 L 892.6875 23 L 872.4375 23 Z M 872.4375 8.621094 " clip-rule="nonzero"/></clipPath><clipPath id="a7550e844b"><path d="M 872.4375 19 L 892.6875 19 L 892.6875 33.371094 L 872.4375 33.371094 Z M 872.4375 19 " clip-rule="nonzero"/></clipPath><clipPath id="6d8cf0c75a"><path d="M 807.875 273.980469 L 828.125 273.980469 L 828.125 288 L 807.875 288 Z M 807.875 273.980469 " clip-rule="nonzero"/></clipPath><clipPath id="5b74e0445a"><path d="M 807.875 284 L 828.125 284 L 828.125 298.730469 L 807.875 298.730469 Z M 807.875 284 " clip-rule="nonzero"/></clipPath><clipPath id="dea5058fa0"><path d="M 952.03125 367.054688 L 972.28125 367.054688 L 972.28125 381 L 952.03125 381 Z M 952.03125 367.054688 " clip-rule="nonzero"/></clipPath><clipPath id="023383bf10"><path d="M 952.03125 378 L 972.28125 378 L 972.28125 391.804688 L 952.03125 391.804688 Z M 952.03125 378 " clip-rule="nonzero"/></clipPath><clipPath id="90b96b3a93"><path d="M 963.804688 119.542969 L 984 119.542969 L 984 134 L 963.804688 134 Z M 963.804688 119.542969 " clip-rule="nonzero"/></clipPath><clipPath id="a9fbc7d170"><path d="M 963.804688 130 L 984 130 L 984 144.292969 L 963.804688 144.292969 Z M 963.804688 130 " clip-rule="nonzero"/></clipPath><clipPath id="8278caa4d0"><path d="M 872.441406 32.148438 L 892.691406 32.148438 L 892.691406 46 L 872.441406 46 Z M 872.441406 32.148438 " clip-rule="nonzero"/></clipPath><clipPath id="7f82bd6221"><path d="M 872.441406 43 L 892.691406 43 L 892.691406 56.898438 L 872.441406 56.898438 Z M 872.441406 43 " clip-rule="nonzero"/></clipPath><clipPath id="5e13be9d6d"><path d="M 807.878906 297.507812 L 828.128906 297.507812 L 828.128906 312 L 807.878906 312 Z M 807.878906 297.507812 " clip-rule="nonzero"/></clipPath><clipPath id="5ab69c5afc"><path d="M 807.878906 308 L 828.128906 308 L 828.128906 322.257812 L 807.878906 322.257812 Z M 807.878906 308 " clip-rule="nonzero"/></clipPath><clipPath id="915a8b4539"><path d="M 952.035156 390.585938 L 972.285156 390.585938 L 972.285156 405 L 952.035156 405 Z M 952.035156 390.585938 " clip-rule="nonzero"/></clipPath><clipPath id="daa936aed9"><path d="M 952.035156 401 L 972.285156 401 L 972.285156 415.335938 L 952.035156 415.335938 Z M 952.035156 401 " clip-rule="nonzero"/></clipPath><clipPath id="2bfe8fb996"><path d="M 619.789062 108.460938 L 643.039062 108.460938 L 643.039062 131.710938 L 619.789062 131.710938 Z M 619.789062 108.460938 " clip-rule="nonzero"/></clipPath><clipPath id="d44412ad2e"><path d="M 608.019531 379.503906 L 631.269531 379.503906 L 631.269531 402.753906 L 608.019531 402.753906 Z M 608.019531 379.503906 " clip-rule="nonzero"/></clipPath><clipPath id="efe8241bbe"><path d="M 797.988281 173.378906 L 815.238281 173.378906 L 815.238281 190.628906 L 797.988281 190.628906 Z M 797.988281 173.378906 " clip-rule="nonzero"/></clipPath><clipPath id="909f2c4908"><path d="M 763.007812 554.453125 L 780.257812 554.453125 L 780.257812 571.703125 L 763.007812 571.703125 Z M 763.007812 554.453125 " clip-rule="nonzero"/></clipPath><clipPath id="81edb0f07b"><path d="M 671.640625 467.0625 L 688.890625 467.0625 L 688.890625 484.3125 L 671.640625 484.3125 Z M 671.640625 467.0625 " clip-rule="nonzero"/></clipPath><clipPath id="02ea6270b1"><path d="M 761.398438 96.015625 L 781.648438 96.015625 L 781.648438 110 L 761.398438 110 Z M 761.398438 96.015625 " clip-rule="nonzero"/></clipPath><clipPath id="62f69f14bd"><path d="M 761.398438 106 L 781.648438 106 L 781.648438 120.765625 L 761.398438 120.765625 Z M 761.398438 106 " clip-rule="nonzero"/></clipPath><clipPath id="f6c9540f37"><path d="M 670.035156 8.621094 L 690.285156 8.621094 L 690.285156 23 L 670.035156 23 Z M 670.035156 8.621094 " clip-rule="nonzero"/></clipPath><clipPath id="933e200535"><path d="M 670.035156 19 L 690.285156 19 L 690.285156 33.371094 L 670.035156 33.371094 Z M 670.035156 19 " clip-rule="nonzero"/></clipPath><clipPath id="08cffee991"><path d="M 605.472656 273.980469 L 625.722656 273.980469 L 625.722656 288 L 605.472656 288 Z M 605.472656 273.980469 " clip-rule="nonzero"/></clipPath><clipPath id="e6cc3537de"><path d="M 605.472656 284 L 625.722656 284 L 625.722656 298.730469 L 605.472656 298.730469 Z M 605.472656 284 " clip-rule="nonzero"/></clipPath><clipPath id="e59555ad50"><path d="M 749.628906 367.054688 L 769.878906 367.054688 L 769.878906 381 L 749.628906 381 Z M 749.628906 367.054688 " clip-rule="nonzero"/></clipPath><clipPath id="cbb106f020"><path d="M 749.628906 378 L 769.878906 378 L 769.878906 391.804688 L 749.628906 391.804688 Z M 749.628906 378 " clip-rule="nonzero"/></clipPath><clipPath id="baa7dcf671"><path d="M 761.402344 119.542969 L 781.652344 119.542969 L 781.652344 134 L 761.402344 134 Z M 761.402344 119.542969 " clip-rule="nonzero"/></clipPath><clipPath id="362984c564"><path d="M 761.402344 130 L 781.652344 130 L 781.652344 144.292969 L 761.402344 144.292969 Z M 761.402344 130 " clip-rule="nonzero"/></clipPath><clipPath id="08f29a94bd"><path d="M 670.035156 32.148438 L 690.285156 32.148438 L 690.285156 46 L 670.035156 46 Z M 670.035156 32.148438 " clip-rule="nonzero"/></clipPath><clipPath id="7e4442bc35"><path d="M 670.035156 43 L 690.285156 43 L 690.285156 56.898438 L 670.035156 56.898438 Z M 670.035156 43 " clip-rule="nonzero"/></clipPath><clipPath id="a768a743bb"><path d="M 605.476562 297.507812 L 625.726562 297.507812 L 625.726562 312 L 605.476562 312 Z M 605.476562 297.507812 " clip-rule="nonzero"/></clipPath><clipPath id="44330972a0"><path d="M 605.476562 308 L 625.726562 308 L 625.726562 322.257812 L 605.476562 322.257812 Z M 605.476562 308 " clip-rule="nonzero"/></clipPath><clipPath id="d0d78ef662"><path d="M 749.632812 390.585938 L 769.882812 390.585938 L 769.882812 405 L 749.632812 405 Z M 749.632812 390.585938 " clip-rule="nonzero"/></clipPath><clipPath id="422a6e2740"><path d="M 749.632812 401 L 769.882812 401 L 769.882812 415.335938 L 749.632812 415.335938 Z M 749.632812 401 " clip-rule="nonzero"/></clipPath><clipPath id="7865426c9c"><path d="M 410.238281 108.460938 L 433.488281 108.460938 L 433.488281 131.710938 L 410.238281 131.710938 Z M 410.238281 108.460938 " clip-rule="nonzero"/></clipPath><clipPath id="6e230f4ee9"><path d="M 398.464844 379.503906 L 421.714844 379.503906 L 421.714844 402.753906 L 398.464844 402.753906 Z M 398.464844 379.503906 " clip-rule="nonzero"/></clipPath><clipPath id="31646bbdef"><path d="M 588.433594 173.378906 L 605.683594 173.378906 L 605.683594 190.628906 L 588.433594 190.628906 Z M 588.433594 173.378906 " clip-rule="nonzero"/></clipPath><clipPath id="a7411f7351"><path d="M 553.453125 554.453125 L 570.703125 554.453125 L 570.703125 571.703125 L 553.453125 571.703125 Z M 553.453125 554.453125 " clip-rule="nonzero"/></clipPath><clipPath id="e0fb49d951"><path d="M 462.085938 467.0625 L 479.335938 467.0625 L 479.335938 484.3125 L 462.085938 484.3125 Z M 462.085938 467.0625 " clip-rule="nonzero"/></clipPath><clipPath id="c56b73016c"><path d="M 551.847656 96.015625 L 572.097656 96.015625 L 572.097656 110 L 551.847656 110 Z M 551.847656 96.015625 " clip-rule="nonzero"/></clipPath><clipPath id="484277a0be"><path d="M 551.847656 106 L 572.097656 106 L 572.097656 120.765625 L 551.847656 120.765625 Z M 551.847656 106 " clip-rule="nonzero"/></clipPath><clipPath id="b7cbfb1a43"><path d="M 460.480469 8.621094 L 480.730469 8.621094 L 480.730469 23 L 460.480469 23 Z M 460.480469 8.621094 " clip-rule="nonzero"/></clipPath><clipPath id="5ccacd8998"><path d="M 460.480469 19 L 480.730469 19 L 480.730469 33.371094 L 460.480469 33.371094 Z M 460.480469 19 " clip-rule="nonzero"/></clipPath><clipPath id="f05b559b42"><path d="M 396 273.980469 L 416.167969 273.980469 L 416.167969 288 L 396 288 Z M 396 273.980469 " clip-rule="nonzero"/></clipPath><clipPath id="41718a297a"><path d="M 396 284 L 416.167969 284 L 416.167969 298.730469 L 396 298.730469 Z M 396 284 " clip-rule="nonzero"/></clipPath><clipPath id="506178dabe"><path d="M 540.074219 367.054688 L 560.324219 367.054688 L 560.324219 381 L 540.074219 381 Z M 540.074219 367.054688 " clip-rule="nonzero"/></clipPath><clipPath id="1deecbeda3"><path d="M 540.074219 378 L 560.324219 378 L 560.324219 391.804688 L 540.074219 391.804688 Z M 540.074219 378 " clip-rule="nonzero"/></clipPath><clipPath id="ef72a0813c"><path d="M 551.847656 119.542969 L 572.097656 119.542969 L 572.097656 134 L 551.847656 134 Z M 551.847656 119.542969 " clip-rule="nonzero"/></clipPath><clipPath id="96f221b3e6"><path d="M 551.847656 130 L 572.097656 130 L 572.097656 144.292969 L 551.847656 144.292969 Z M 551.847656 130 " clip-rule="nonzero"/></clipPath><clipPath id="ddc3787180"><path d="M 460.484375 32.148438 L 480.734375 32.148438 L 480.734375 46 L 460.484375 46 Z M 460.484375 32.148438 " clip-rule="nonzero"/></clipPath><clipPath id="61a14fac3b"><path d="M 460.484375 43 L 480.734375 43 L 480.734375 56.898438 L 460.484375 56.898438 Z M 460.484375 43 " clip-rule="nonzero"/></clipPath><clipPath id="52fa4cc838"><path d="M 396 297.507812 L 416.171875 297.507812 L 416.171875 312 L 396 312 Z M 396 297.507812 " clip-rule="nonzero"/></clipPath><clipPath id="1c250815b5"><path d="M 396 308 L 416.171875 308 L 416.171875 322.257812 L 396 322.257812 Z M 396 308 " clip-rule="nonzero"/></clipPath><clipPath id="2e2b74c6d6"><path d="M 540.078125 390.585938 L 560.328125 390.585938 L 560.328125 405 L 540.078125 405 Z M 540.078125 390.585938 " clip-rule="nonzero"/></clipPath><clipPath id="052e73d9c6"><path d="M 540.078125 401 L 560.328125 401 L 560.328125 415.335938 L 540.078125 415.335938 Z M 540.078125 401 " clip-rule="nonzero"/></clipPath><clipPath id="e534437fbc"><path d="M 200.683594 108.460938 L 223.933594 108.460938 L 223.933594 131.710938 L 200.683594 131.710938 Z M 200.683594 108.460938 " clip-rule="nonzero"/></clipPath><clipPath id="653b7d45dd"><path d="M 188.914062 379.503906 L 212.164062 379.503906 L 212.164062 402.753906 L 188.914062 402.753906 Z M 188.914062 379.503906 " clip-rule="nonzero"/></clipPath><clipPath id="54169bd234"><path d="M 378.882812 173.378906 L 396.132812 173.378906 L 396.132812 190.628906 L 378.882812 190.628906 Z M 378.882812 173.378906 " clip-rule="nonzero"/></clipPath><clipPath id="a817f92fd5"><path d="M 343.898438 554.453125 L 361.148438 554.453125 L 361.148438 571.703125 L 343.898438 571.703125 Z M 343.898438 554.453125 " clip-rule="nonzero"/></clipPath><clipPath id="b8c828e5a7"><path d="M 252.535156 467.0625 L 269.785156 467.0625 L 269.785156 484.3125 L 252.535156 484.3125 Z M 252.535156 467.0625 " clip-rule="nonzero"/></clipPath><clipPath id="0336466892"><path d="M 342.292969 96.015625 L 362.542969 96.015625 L 362.542969 110 L 342.292969 110 Z M 342.292969 96.015625 " clip-rule="nonzero"/></clipPath><clipPath id="4b51ec59bb"><path d="M 342.292969 106 L 362.542969 106 L 362.542969 120.765625 L 342.292969 120.765625 Z M 342.292969 106 " clip-rule="nonzero"/></clipPath><clipPath id="56ce57a992"><path d="M 251 8.621094 L 271.175781 8.621094 L 271.175781 23 L 251 23 Z M 251 8.621094 " clip-rule="nonzero"/></clipPath><clipPath id="405c773aa2"><path d="M 251 19 L 271.175781 19 L 271.175781 33.371094 L 251 33.371094 Z M 251 19 " clip-rule="nonzero"/></clipPath><clipPath id="0c5d9e66a6"><path d="M 186.367188 273.980469 L 206.617188 273.980469 L 206.617188 288 L 186.367188 288 Z M 186.367188 273.980469 " clip-rule="nonzero"/></clipPath><clipPath id="260181da44"><path d="M 186.367188 284 L 206.617188 284 L 206.617188 298.730469 L 186.367188 298.730469 Z M 186.367188 284 " clip-rule="nonzero"/></clipPath><clipPath id="ec0dff2f97"><path d="M 330.523438 367.054688 L 350.773438 367.054688 L 350.773438 381 L 330.523438 381 Z M 330.523438 367.054688 " clip-rule="nonzero"/></clipPath><clipPath id="8891c4fb50"><path d="M 330.523438 378 L 350.773438 378 L 350.773438 391.804688 L 330.523438 391.804688 Z M 330.523438 378 " clip-rule="nonzero"/></clipPath><clipPath id="caf2caeb0d"><path d="M 342.296875 119.542969 L 362.546875 119.542969 L 362.546875 134 L 342.296875 134 Z M 342.296875 119.542969 " clip-rule="nonzero"/></clipPath><clipPath id="5c0cc18403"><path d="M 342.296875 130 L 362.546875 130 L 362.546875 144.292969 L 342.296875 144.292969 Z M 342.296875 130 " clip-rule="nonzero"/></clipPath><clipPath id="15def14e7b"><path d="M 251 32.148438 L 271.179688 32.148438 L 271.179688 46 L 251 46 Z M 251 32.148438 " clip-rule="nonzero"/></clipPath><clipPath id="48763738b6"><path d="M 251 43 L 271.179688 43 L 271.179688 56.898438 L 251 56.898438 Z M 251 43 " clip-rule="nonzero"/></clipPath><clipPath id="2baefaa5c8"><path d="M 186.371094 297.507812 L 206.621094 297.507812 L 206.621094 312 L 186.371094 312 Z M 186.371094 297.507812 " clip-rule="nonzero"/></clipPath><clipPath id="5ac7851579"><path d="M 186.371094 308 L 206.621094 308 L 206.621094 322.257812 L 186.371094 322.257812 Z M 186.371094 308 " clip-rule="nonzero"/></clipPath><clipPath id="f8131f0d9c"><path d="M 330.527344 390.585938 L 350.777344 390.585938 L 350.777344 405 L 330.527344 405 Z M 330.527344 390.585938 " clip-rule="nonzero"/></clipPath><clipPath id="8d21da7ed8"><path d="M 330.527344 401 L 350.777344 401 L 350.777344 415.335938 L 330.527344 415.335938 Z M 330.527344 401 " clip-rule="nonzero"/></clipPath><clipPath id="2dbdf08dee"><path d="M 169.632812 173.378906 L 186.882812 173.378906 L 186.882812 190.628906 L 169.632812 190.628906 Z M 169.632812 173.378906 " clip-rule="nonzero"/></clipPath><clipPath id="b3fa5b47e2"><path d="M 134.648438 554.453125 L 151.898438 554.453125 L 151.898438 571.703125 L 134.648438 571.703125 Z M 134.648438 554.453125 " clip-rule="nonzero"/></clipPath><clipPath id="5969c0e92f"><path d="M 43.285156 467.0625 L 60.535156 467.0625 L 60.535156 484.3125 L 43.285156 484.3125 Z M 43.285156 467.0625 " clip-rule="nonzero"/></clipPath><clipPath id="83153c7d02"><path d="M 133.042969 96.015625 L 153.292969 96.015625 L 153.292969 110 L 133.042969 110 Z M 133.042969 96.015625 " clip-rule="nonzero"/></clipPath><clipPath id="b354392fd7"><path d="M 133.042969 106 L 153.292969 106 L 153.292969 120.765625 L 133.042969 120.765625 Z M 133.042969 106 " clip-rule="nonzero"/></clipPath><clipPath id="850a18be56"><path d="M 41.675781 8.621094 L 61.925781 8.621094 L 61.925781 23 L 41.675781 23 Z M 41.675781 8.621094 " clip-rule="nonzero"/></clipPath><clipPath id="c9e77b0416"><path d="M 41.675781 19 L 61.925781 19 L 61.925781 33.371094 L 41.675781 33.371094 Z M 41.675781 19 " clip-rule="nonzero"/></clipPath><clipPath id="868c4621dc"><path d="M 121.273438 367.054688 L 141.523438 367.054688 L 141.523438 381 L 121.273438 381 Z M 121.273438 367.054688 " clip-rule="nonzero"/></clipPath><clipPath id="13935f55f5"><path d="M 121.273438 378 L 141.523438 378 L 141.523438 391.804688 L 121.273438 391.804688 Z M 121.273438 378 " clip-rule="nonzero"/></clipPath><clipPath id="cedc3c5ebb"><path d="M 133.046875 119.542969 L 153.296875 119.542969 L 153.296875 134 L 133.046875 134 Z M 133.046875 119.542969 " clip-rule="nonzero"/></clipPath><clipPath id="f0b66bdcf7"><path d="M 133.046875 130 L 153.296875 130 L 153.296875 144.292969 L 133.046875 144.292969 Z M 133.046875 130 " clip-rule="nonzero"/></clipPath><clipPath id="c90152bac0"><path d="M 41.679688 32.148438 L 61.929688 32.148438 L 61.929688 46 L 41.679688 46 Z M 41.679688 32.148438 " clip-rule="nonzero"/></clipPath><clipPath id="b156b617a6"><path d="M 41.679688 43 L 61.929688 43 L 61.929688 56.898438 L 41.679688 56.898438 Z M 41.679688 43 " clip-rule="nonzero"/></clipPath><clipPath id="edfe383adf"><path d="M 121.277344 390.585938 L 141.527344 390.585938 L 141.527344 405 L 121.277344 405 Z M 121.277344 390.585938 " clip-rule="nonzero"/></clipPath><clipPath id="d91a2c3118"><path d="M 121.277344 401 L 141.527344 401 L 141.527344 415.335938 L 121.277344 415.335938 Z M 121.277344 401 " clip-rule="nonzero"/></clipPath></defs><g clip-path="url(#c0fbd0f9ed)"><path fill="#ffffff" d="M 0 0.140625 L 1024.5 0.140625 L 1024.5 583.640625 L 0 583.640625 Z M 0 0.140625 " fill-opacity="1" fill-rule="nonzero"/><path fill="#ffffff" d="M 0 0.140625 L 1024.5 0.140625 L 1024.5 576.140625 L 0 576.140625 Z M 0 0.140625 " fill-opacity="1" fill-rule="nonzero"/><path fill="#001634" d="M 0 0.140625 L 1024.5 0.140625 L 1024.5 576.140625 L 0 576.140625 Z M 0 0.140625 " fill-opacity="1" fill-rule="nonzero"/></g><g clip-path="url(#38718248df)"><path fill="#ff873d" d="M 833.816406 108.460938 C 827.394531 108.460938 822.191406 113.664062 822.191406 120.085938 C 822.191406 126.507812 827.394531 131.710938 833.816406 131.710938 C 840.242188 131.710938 845.441406 126.507812 845.441406 120.085938 C 845.441406 113.664062 840.242188 108.460938 833.816406 108.460938 Z M 833.816406 129.386719 C 828.679688 129.386719 824.519531 125.222656 824.519531 120.085938 C 824.519531 114.945312 828.679688 110.785156 833.816406 110.785156 C 838.957031 110.785156 843.117188 114.945312 843.117188 120.085938 C 843.117188 125.222656 838.957031 129.386719 833.816406 129.386719 Z M 833.816406 129.386719 " fill-opacity="1" fill-rule="nonzero"/></g><g clip-path="url(#7d5f3a068b)"><path fill="#ff873d" d="M 822.046875 379.503906 C 815.625 379.503906 810.421875 384.703125 810.421875 391.128906 C 810.421875 397.550781 815.625 402.753906 822.046875 402.753906 C 828.472656 402.753906 833.671875 397.550781 833.671875 391.128906 C 833.671875 384.703125 828.472656 379.503906 822.046875 379.503906 Z M 822.046875 400.425781 C 816.910156 400.425781 812.75 396.265625 812.75 391.128906 C 812.75 385.988281 816.910156 381.828125 822.046875 381.828125 C 827.1875 381.828125 831.347656 385.988281 831.347656 391.128906 C 831.347656 396.265625 827.1875 400.425781 822.046875 400.425781 Z M 822.046875 400.425781 " fill-opacity="1" fill-rule="nonzero"/></g><g clip-path="url(#217a3df332)"><path fill="#ff873d" d="M 1009.015625 173.378906 C 1004.25 173.378906 1000.390625 177.238281 1000.390625 182.003906 C 1000.390625 186.765625 1004.25 190.628906 1009.015625 190.628906 C 1013.78125 190.628906 1017.640625 186.765625 1017.640625 182.003906 C 1017.640625 177.238281 1013.78125 173.378906 1009.015625 173.378906 Z M 1009.015625 188.902344 C 1005.203125 188.902344 1002.117188 185.8125 1002.117188 182.003906 C 1002.117188 178.191406 1005.203125 175.101562 1009.015625 175.101562 C 1012.828125 175.101562 1015.917969 178.191406 1015.917969 182.003906 C 1015.917969 185.8125 1012.828125 188.902344 1009.015625 188.902344 Z M 1009.015625 188.902344 " fill-opacity="1" fill-rule="nonzero"/></g><g clip-path="url(#4a9fab37fd)"><path fill="#ff873d" d="M 974.035156 554.453125 C 969.269531 554.453125 965.410156 558.3125 965.410156 563.078125 C 965.410156 567.84375 969.269531 571.703125 974.035156 571.703125 C 978.800781 571.703125 982.660156 567.84375 982.660156 563.078125 C 982.660156 558.3125 978.800781 554.453125 974.035156 554.453125 Z M 974.035156 569.980469 C 970.222656 569.980469 967.132812 566.890625 967.132812 563.078125 C 967.132812 559.265625 970.222656 556.179688 974.035156 556.179688 C 977.847656 556.179688 980.933594 559.265625 980.933594 563.078125 C 980.933594 566.890625 977.847656 569.980469 974.035156 569.980469 Z M 974.035156 569.980469 " fill-opacity="1" fill-rule="nonzero"/></g><g clip-path="url(#4171e9fdae)"><path fill="#ff873d" d="M 882.667969 467.0625 C 877.902344 467.0625 874.042969 470.921875 874.042969 475.6875 C 874.042969 480.453125 877.902344 484.3125 882.667969 484.3125 C 887.433594 484.3125 891.292969 480.453125 891.292969 475.6875 C 891.292969 470.921875 887.433594 467.0625 882.667969 467.0625 Z M 882.667969 482.585938 C 878.855469 482.585938 875.769531 479.5 875.769531 475.6875 C 875.769531 471.875 878.855469 468.785156 882.667969 468.785156 C 886.480469 468.785156 889.570312 471.875 889.570312 475.6875 C 889.570312 479.5 886.480469 482.585938 882.667969 482.585938 Z M 882.667969 482.585938 " fill-opacity="1" fill-rule="nonzero"/></g><g clip-path="url(#7a45beedad)"><path fill="#ff873d" d="M 973.925781 109.792969 L 977.6875 106.039062 L 983.972656 99.769531 L 980.210938 96.015625 L 973.925781 102.285156 L 967.644531 96.015625 L 963.882812 99.769531 L 970.164062 106.039062 L 973.925781 109.792969 L 973.925781 109.75 Z M 973.925781 109.792969 " fill-opacity="1" fill-rule="nonzero"/></g><g clip-path="url(#6f52080d65)"><path fill="#ff873d" d="M 973.925781 120.765625 L 977.6875 117.011719 L 983.972656 110.742188 L 980.210938 106.988281 L 973.925781 113.257812 L 967.644531 106.988281 L 963.882812 110.742188 L 970.164062 117.011719 Z M 973.925781 120.765625 " fill-opacity="1" fill-rule="nonzero"/></g><g clip-path="url(#109e01de7d)"><path fill="#ff873d" d="M 882.5625 22.398438 L 886.324219 18.644531 L 892.605469 12.375 L 888.84375 8.621094 L 882.5625 14.890625 L 876.277344 8.621094 L 872.515625 12.375 L 878.800781 18.644531 L 882.5625 22.398438 L 882.5625 22.359375 Z M 882.5625 22.398438 " fill-opacity="1" fill-rule="nonzero"/></g><g clip-path="url(#a7550e844b)"><path fill="#ff873d" d="M 882.5625 33.371094 L 886.324219 29.617188 L 892.605469 23.347656 L 888.84375 19.59375 L 882.5625 25.863281 L 876.277344 19.59375 L 872.515625 23.347656 L 878.800781 29.617188 Z M 882.5625 33.371094 " fill-opacity="1" fill-rule="nonzero"/></g><g clip-path="url(#6d8cf0c75a)"><path fill="#ff873d" d="M 818 287.757812 L 821.761719 284.003906 L 828.046875 277.734375 L 824.285156 273.980469 L 818 280.25 L 811.71875 273.980469 L 807.957031 277.734375 L 814.238281 284.003906 L 818 287.757812 L 818 287.714844 Z M 818 287.757812 " fill-opacity="1" fill-rule="nonzero"/></g><g clip-path="url(#5b74e0445a)"><path fill="#ff873d" d="M 818 298.730469 L 821.761719 294.976562 L 828.046875 288.707031 L 824.285156 284.953125 L 818 291.222656 L 811.71875 284.953125 L 807.957031 288.707031 L 814.238281 294.976562 Z M 818 298.730469 " fill-opacity="1" fill-rule="nonzero"/></g><g clip-path="url(#dea5058fa0)"><path fill="#ff873d" d="M 962.15625 380.832031 L 965.917969 377.082031 L 972.203125 370.808594 L 968.441406 367.054688 L 962.15625 373.328125 L 955.875 367.054688 L 952.113281 370.808594 L 958.394531 377.082031 L 962.15625 380.832031 L 962.15625 380.792969 Z M 962.15625 380.832031 " fill-opacity="1" fill-rule="nonzero"/></g><g clip-path="url(#023383bf10)"><path fill="#ff873d" d="M 962.15625 391.804688 L 965.917969 388.050781 L 972.203125 381.78125 L 968.441406 378.027344 L 962.15625 384.300781 L 955.875 378.027344 L 952.113281 381.78125 L 958.394531 388.050781 Z M 962.15625 391.804688 " fill-opacity="1" fill-rule="nonzero"/></g><g clip-path="url(#90b96b3a93)"><path fill="#ff873d" d="M 973.929688 133.320312 L 977.691406 129.566406 L 983.976562 123.296875 L 980.214844 119.542969 L 973.929688 125.8125 L 967.648438 119.542969 L 963.886719 123.296875 L 970.167969 129.566406 L 973.929688 133.320312 L 973.929688 133.277344 Z M 973.929688 133.320312 " fill-opacity="1" fill-rule="nonzero"/></g><g clip-path="url(#a9fbc7d170)"><path fill="#ff873d" d="M 973.929688 144.292969 L 977.691406 140.539062 L 983.976562 134.269531 L 980.214844 130.515625 L 973.929688 136.785156 L 967.648438 130.515625 L 963.886719 134.269531 L 970.167969 140.539062 Z M 973.929688 144.292969 " fill-opacity="1" fill-rule="nonzero"/></g><g clip-path="url(#8278caa4d0)"><path fill="#ff873d" d="M 882.566406 45.925781 L 886.328125 42.171875 L 892.609375 35.902344 L 888.847656 32.148438 L 882.566406 38.417969 L 876.28125 32.148438 L 872.519531 35.902344 L 878.804688 42.171875 L 882.566406 45.925781 L 882.566406 45.886719 Z M 882.566406 45.925781 " fill-opacity="1" fill-rule="nonzero"/></g><g clip-path="url(#7f82bd6221)"><path fill="#ff873d" d="M 882.566406 56.898438 L 886.328125 53.144531 L 892.609375 46.875 L 888.847656 43.121094 L 882.566406 49.390625 L 876.28125 43.121094 L 872.519531 46.875 L 878.804688 53.144531 Z M 882.566406 56.898438 " fill-opacity="1" fill-rule="nonzero"/></g><g clip-path="url(#5e13be9d6d)"><path fill="#ff873d" d="M 818.003906 311.285156 L 821.765625 307.53125 L 828.050781 301.261719 L 824.289062 297.507812 L 818.003906 303.777344 L 811.722656 297.507812 L 807.960938 301.261719 L 814.242188 307.53125 L 818.003906 311.285156 L 818.003906 311.242188 Z M 818.003906 311.285156 " fill-opacity="1" fill-rule="nonzero"/></g><g clip-path="url(#5ab69c5afc)"><path fill="#ff873d" d="M 818.003906 322.257812 L 821.765625 318.503906 L 828.050781 312.234375 L 824.289062 308.480469 L 818.003906 314.75 L 811.722656 308.480469 L 807.960938 312.234375 L 814.242188 318.503906 Z M 818.003906 322.257812 " fill-opacity="1" fill-rule="nonzero"/></g><g clip-path="url(#915a8b4539)"><path fill="#ff873d" d="M 962.160156 404.363281 L 965.921875 400.609375 L 972.207031 394.335938 L 968.445312 390.585938 L 962.160156 396.855469 L 955.878906 390.585938 L 952.117188 394.335938 L 958.398438 400.609375 L 962.160156 404.363281 L 962.160156 404.320312 Z M 962.160156 404.363281 " fill-opacity="1" fill-rule="nonzero"/></g><g clip-path="url(#daa936aed9)"><path fill="#ff873d" d="M 962.160156 415.335938 L 965.921875 411.582031 L 972.207031 405.308594 L 968.445312 401.554688 L 962.160156 407.828125 L 955.878906 401.554688 L 952.117188 405.308594 L 958.398438 411.582031 Z M 962.160156 415.335938 " fill-opacity="1" fill-rule="nonzero"/></g><g clip-path="url(#2bfe8fb996)"><path fill="#ff873d" d="M 631.414062 108.460938 C 624.992188 108.460938 619.789062 113.664062 619.789062 120.085938 C 619.789062 126.507812 624.992188 131.710938 631.414062 131.710938 C 637.835938 131.710938 643.039062 126.507812 643.039062 120.085938 C 643.039062 113.664062 637.835938 108.460938 631.414062 108.460938 Z M 631.414062 129.386719 C 626.277344 129.386719 622.113281 125.222656 622.113281 120.085938 C 622.113281 114.945312 626.277344 110.785156 631.414062 110.785156 C 636.554688 110.785156 640.714844 114.945312 640.714844 120.085938 C 640.714844 125.222656 636.554688 129.386719 631.414062 129.386719 Z M 631.414062 129.386719 " fill-opacity="1" fill-rule="nonzero"/></g><g clip-path="url(#d44412ad2e)"><path fill="#ff873d" d="M 619.644531 379.503906 C 613.222656 379.503906 608.019531 384.703125 608.019531 391.128906 C 608.019531 397.550781 613.222656 402.753906 619.644531 402.753906 C 626.066406 402.753906 631.269531 397.550781 631.269531 391.128906 C 631.269531 384.703125 626.066406 379.503906 619.644531 379.503906 Z M 619.644531 400.425781 C 614.507812 400.425781 610.34375 396.265625 610.34375 391.128906 C 610.34375 385.988281 614.507812 381.828125 619.644531 381.828125 C 624.785156 381.828125 628.945312 385.988281 628.945312 391.128906 C 628.945312 396.265625 624.785156 400.425781 619.644531 400.425781 Z M 619.644531 400.425781 " fill-opacity="1" fill-rule="nonzero"/></g><g clip-path="url(#efe8241bbe)"><path fill="#ff873d" d="M 806.613281 173.378906 C 801.847656 173.378906 797.988281 177.238281 797.988281 182.003906 C 797.988281 186.765625 801.847656 190.628906 806.613281 190.628906 C 811.378906 190.628906 815.238281 186.765625 815.238281 182.003906 C 815.238281 177.238281 811.378906 173.378906 806.613281 173.378906 Z M 806.613281 188.902344 C 802.800781 188.902344 799.714844 185.8125 799.714844 182.003906 C 799.714844 178.191406 802.800781 175.101562 806.613281 175.101562 C 810.425781 175.101562 813.511719 178.191406 813.511719 182.003906 C 813.511719 185.8125 810.425781 188.902344 806.613281 188.902344 Z M 806.613281 188.902344 " fill-opacity="1" fill-rule="nonzero"/></g><g clip-path="url(#909f2c4908)"><path fill="#ff873d" d="M 771.632812 554.453125 C 766.867188 554.453125 763.007812 558.3125 763.007812 563.078125 C 763.007812 567.84375 766.867188 571.703125 771.632812 571.703125 C 776.398438 571.703125 780.257812 567.84375 780.257812 563.078125 C 780.257812 558.3125 776.398438 554.453125 771.632812 554.453125 Z M 771.632812 569.980469 C 767.820312 569.980469 764.730469 566.890625 764.730469 563.078125 C 764.730469 559.265625 767.820312 556.179688 771.632812 556.179688 C 775.445312 556.179688 778.53125 559.265625 778.53125 563.078125 C 778.53125 566.890625 775.445312 569.980469 771.632812 569.980469 Z M 771.632812 569.980469 " fill-opacity="1" fill-rule="nonzero"/></g><g clip-path="url(#81edb0f07b)"><path fill="#ff873d" d="M 680.265625 467.0625 C 675.5 467.0625 671.640625 470.921875 671.640625 475.6875 C 671.640625 480.453125 675.5 484.3125 680.265625 484.3125 C 685.03125 484.3125 688.890625 480.453125 688.890625 475.6875 C 688.890625 470.921875 685.03125 467.0625 680.265625 467.0625 Z M 680.265625 482.585938 C 676.453125 482.585938 673.367188 479.5 673.367188 475.6875 C 673.367188 471.875 676.453125 468.785156 680.265625 468.785156 C 684.078125 468.785156 687.164062 471.875 687.164062 475.6875 C 687.164062 479.5 684.078125 482.585938 680.265625 482.585938 Z M 680.265625 482.585938 " fill-opacity="1" fill-rule="nonzero"/></g><g clip-path="url(#02ea6270b1)"><path fill="#ff873d" d="M 771.523438 109.792969 L 775.285156 106.039062 L 781.570312 99.769531 L 777.808594 96.015625 L 771.523438 102.285156 L 765.242188 96.015625 L 761.480469 99.769531 L 767.761719 106.039062 L 771.523438 109.792969 L 771.523438 109.75 Z M 771.523438 109.792969 " fill-opacity="1" fill-rule="nonzero"/></g><g clip-path="url(#62f69f14bd)"><path fill="#ff873d" d="M 771.523438 120.765625 L 775.285156 117.011719 L 781.570312 110.742188 L 777.808594 106.988281 L 771.523438 113.257812 L 765.242188 106.988281 L 761.480469 110.742188 L 767.761719 117.011719 Z M 771.523438 120.765625 " fill-opacity="1" fill-rule="nonzero"/></g><g clip-path="url(#f6c9540f37)"><path fill="#ff873d" d="M 680.160156 22.398438 L 683.921875 18.644531 L 690.203125 12.375 L 686.441406 8.621094 L 680.160156 14.890625 L 673.875 8.621094 L 670.113281 12.375 L 676.398438 18.644531 L 680.160156 22.398438 L 680.160156 22.359375 Z M 680.160156 22.398438 " fill-opacity="1" fill-rule="nonzero"/></g><g clip-path="url(#933e200535)"><path fill="#ff873d" d="M 680.160156 33.371094 L 683.921875 29.617188 L 690.203125 23.347656 L 686.441406 19.59375 L 680.160156 25.863281 L 673.875 19.59375 L 670.113281 23.347656 L 676.398438 29.617188 Z M 680.160156 33.371094 " fill-opacity="1" fill-rule="nonzero"/></g><g clip-path="url(#08cffee991)"><path fill="#ff873d" d="M 615.597656 287.757812 L 619.359375 284.003906 L 625.644531 277.734375 L 621.882812 273.980469 L 615.597656 280.25 L 609.316406 273.980469 L 605.554688 277.734375 L 611.835938 284.003906 L 615.597656 287.757812 L 615.597656 287.714844 Z M 615.597656 287.757812 " fill-opacity="1" fill-rule="nonzero"/></g><g clip-path="url(#e6cc3537de)"><path fill="#ff873d" d="M 615.597656 298.730469 L 619.359375 294.976562 L 625.644531 288.707031 L 621.882812 284.953125 L 615.597656 291.222656 L 609.316406 284.953125 L 605.554688 288.707031 L 611.835938 294.976562 Z M 615.597656 298.730469 " fill-opacity="1" fill-rule="nonzero"/></g><g clip-path="url(#e59555ad50)"><path fill="#ff873d" d="M 759.753906 380.832031 L 763.515625 377.082031 L 769.800781 370.808594 L 766.039062 367.054688 L 759.753906 373.328125 L 753.472656 367.054688 L 749.710938 370.808594 L 755.992188 377.082031 L 759.753906 380.832031 L 759.753906 380.792969 Z M 759.753906 380.832031 " fill-opacity="1" fill-rule="nonzero"/></g><g clip-path="url(#cbb106f020)"><path fill="#ff873d" d="M 759.753906 391.804688 L 763.515625 388.050781 L 769.800781 381.78125 L 766.039062 378.027344 L 759.753906 384.300781 L 753.472656 378.027344 L 749.710938 381.78125 L 755.992188 388.050781 Z M 759.753906 391.804688 " fill-opacity="1" fill-rule="nonzero"/></g><g clip-path="url(#baa7dcf671)"><path fill="#ff873d" d="M 771.527344 133.320312 L 775.289062 129.566406 L 781.570312 123.296875 L 777.808594 119.542969 L 771.527344 125.8125 L 765.246094 119.542969 L 761.484375 123.296875 L 767.765625 129.566406 L 771.527344 133.320312 L 771.527344 133.277344 Z M 771.527344 133.320312 " fill-opacity="1" fill-rule="nonzero"/></g><g clip-path="url(#362984c564)"><path fill="#ff873d" d="M 771.527344 144.292969 L 775.289062 140.539062 L 781.570312 134.269531 L 777.808594 130.515625 L 771.527344 136.785156 L 765.246094 130.515625 L 761.484375 134.269531 L 767.765625 140.539062 Z M 771.527344 144.292969 " fill-opacity="1" fill-rule="nonzero"/></g><g clip-path="url(#08f29a94bd)"><path fill="#ff873d" d="M 680.160156 45.925781 L 683.921875 42.171875 L 690.207031 35.902344 L 686.445312 32.148438 L 680.160156 38.417969 L 673.878906 32.148438 L 670.117188 35.902344 L 676.398438 42.171875 L 680.160156 45.925781 L 680.160156 45.886719 Z M 680.160156 45.925781 " fill-opacity="1" fill-rule="nonzero"/></g><g clip-path="url(#7e4442bc35)"><path fill="#ff873d" d="M 680.160156 56.898438 L 683.921875 53.144531 L 690.207031 46.875 L 686.445312 43.121094 L 680.160156 49.390625 L 673.878906 43.121094 L 670.117188 46.875 L 676.398438 53.144531 Z M 680.160156 56.898438 " fill-opacity="1" fill-rule="nonzero"/></g><g clip-path="url(#a768a743bb)"><path fill="#ff873d" d="M 615.601562 311.285156 L 619.363281 307.53125 L 625.644531 301.261719 L 621.882812 297.507812 L 615.601562 303.777344 L 609.316406 297.507812 L 605.554688 301.261719 L 611.839844 307.53125 L 615.601562 311.285156 L 615.601562 311.242188 Z M 615.601562 311.285156 " fill-opacity="1" fill-rule="nonzero"/></g><g clip-path="url(#44330972a0)"><path fill="#ff873d" d="M 615.601562 322.257812 L 619.363281 318.503906 L 625.644531 312.234375 L 621.882812 308.480469 L 615.601562 314.75 L 609.316406 308.480469 L 605.554688 312.234375 L 611.839844 318.503906 Z M 615.601562 322.257812 " fill-opacity="1" fill-rule="nonzero"/></g><g clip-path="url(#d0d78ef662)"><path fill="#ff873d" d="M 759.757812 404.363281 L 763.519531 400.609375 L 769.800781 394.335938 L 766.039062 390.585938 L 759.757812 396.855469 L 753.472656 390.585938 L 749.710938 394.335938 L 755.996094 400.609375 L 759.757812 404.363281 L 759.757812 404.320312 Z M 759.757812 404.363281 " fill-opacity="1" fill-rule="nonzero"/></g><g clip-path="url(#422a6e2740)"><path fill="#ff873d" d="M 759.757812 415.335938 L 763.519531 411.582031 L 769.800781 405.308594 L 766.039062 401.554688 L 759.757812 407.828125 L 753.472656 401.554688 L 749.710938 405.308594 L 755.996094 411.582031 Z M 759.757812 415.335938 " fill-opacity="1" fill-rule="nonzero"/></g><g clip-path="url(#7865426c9c)"><path fill="#ff873d" d="M 421.863281 108.460938 C 415.4375 108.460938 410.238281 113.664062 410.238281 120.085938 C 410.238281 126.507812 415.4375 131.710938 421.863281 131.710938 C 428.285156 131.710938 433.488281 126.507812 433.488281 120.085938 C 433.488281 113.664062 428.285156 108.460938 421.863281 108.460938 Z M 421.863281 129.386719 C 416.722656 129.386719 412.5625 125.222656 412.5625 120.085938 C 412.5625 114.945312 416.722656 110.785156 421.863281 110.785156 C 427 110.785156 431.160156 114.945312 431.160156 120.085938 C 431.160156 125.222656 427 129.386719 421.863281 129.386719 Z M 421.863281 129.386719 " fill-opacity="1" fill-rule="nonzero"/></g><g clip-path="url(#6e230f4ee9)"><path fill="#ff873d" d="M 410.089844 379.503906 C 403.667969 379.503906 398.464844 384.703125 398.464844 391.128906 C 398.464844 397.550781 403.667969 402.753906 410.089844 402.753906 C 416.515625 402.753906 421.714844 397.550781 421.714844 391.128906 C 421.714844 384.703125 416.515625 379.503906 410.089844 379.503906 Z M 410.089844 400.425781 C 404.953125 400.425781 400.792969 396.265625 400.792969 391.128906 C 400.792969 385.988281 404.953125 381.828125 410.089844 381.828125 C 415.230469 381.828125 419.390625 385.988281 419.390625 391.128906 C 419.390625 396.265625 415.230469 400.425781 410.089844 400.425781 Z M 410.089844 400.425781 " fill-opacity="1" fill-rule="nonzero"/></g><g clip-path="url(#31646bbdef)"><path fill="#ff873d" d="M 597.058594 173.378906 C 592.292969 173.378906 588.433594 177.238281 588.433594 182.003906 C 588.433594 186.765625 592.292969 190.628906 597.058594 190.628906 C 601.824219 190.628906 605.683594 186.765625 605.683594 182.003906 C 605.683594 177.238281 601.824219 173.378906 597.058594 173.378906 Z M 597.058594 188.902344 C 593.246094 188.902344 590.160156 185.8125 590.160156 182.003906 C 590.160156 178.191406 593.246094 175.101562 597.058594 175.101562 C 600.871094 175.101562 603.960938 178.191406 603.960938 182.003906 C 603.960938 185.8125 600.871094 188.902344 597.058594 188.902344 Z M 597.058594 188.902344 " fill-opacity="1" fill-rule="nonzero"/></g><g clip-path="url(#a7411f7351)"><path fill="#ff873d" d="M 562.078125 554.453125 C 557.3125 554.453125 553.453125 558.3125 553.453125 563.078125 C 553.453125 567.84375 557.3125 571.703125 562.078125 571.703125 C 566.84375 571.703125 570.703125 567.84375 570.703125 563.078125 C 570.703125 558.3125 566.84375 554.453125 562.078125 554.453125 Z M 562.078125 569.980469 C 558.265625 569.980469 555.179688 566.890625 555.179688 563.078125 C 555.179688 559.265625 558.265625 556.179688 562.078125 556.179688 C 565.890625 556.179688 568.976562 559.265625 568.976562 563.078125 C 568.976562 566.890625 565.890625 569.980469 562.078125 569.980469 Z M 562.078125 569.980469 " fill-opacity="1" fill-rule="nonzero"/></g><g clip-path="url(#e0fb49d951)"><path fill="#ff873d" d="M 470.710938 467.0625 C 465.945312 467.0625 462.085938 470.921875 462.085938 475.6875 C 462.085938 480.453125 465.945312 484.3125 470.710938 484.3125 C 475.476562 484.3125 479.335938 480.453125 479.335938 475.6875 C 479.335938 470.921875 475.476562 467.0625 470.710938 467.0625 Z M 470.710938 482.585938 C 466.898438 482.585938 463.8125 479.5 463.8125 475.6875 C 463.8125 471.875 466.898438 468.785156 470.710938 468.785156 C 474.523438 468.785156 477.613281 471.875 477.613281 475.6875 C 477.613281 479.5 474.523438 482.585938 470.710938 482.585938 Z M 470.710938 482.585938 " fill-opacity="1" fill-rule="nonzero"/></g><g clip-path="url(#c56b73016c)"><path fill="#ff873d" d="M 561.972656 109.792969 L 565.734375 106.039062 L 572.015625 99.769531 L 568.253906 96.015625 L 561.972656 102.285156 L 555.6875 96.015625 L 551.925781 99.769531 L 558.210938 106.039062 L 561.972656 109.792969 L 561.972656 109.75 Z M 561.972656 109.792969 " fill-opacity="1" fill-rule="nonzero"/></g><g clip-path="url(#484277a0be)"><path fill="#ff873d" d="M 561.972656 120.765625 L 565.734375 117.011719 L 572.015625 110.742188 L 568.253906 106.988281 L 561.972656 113.257812 L 555.6875 106.988281 L 551.925781 110.742188 L 558.210938 117.011719 Z M 561.972656 120.765625 " fill-opacity="1" fill-rule="nonzero"/></g><g clip-path="url(#b7cbfb1a43)"><path fill="#ff873d" d="M 470.605469 22.398438 L 474.367188 18.644531 L 480.648438 12.375 L 476.886719 8.621094 L 470.605469 14.890625 L 464.320312 8.621094 L 460.558594 12.375 L 466.84375 18.644531 L 470.605469 22.398438 L 470.605469 22.359375 Z M 470.605469 22.398438 " fill-opacity="1" fill-rule="nonzero"/></g><g clip-path="url(#5ccacd8998)"><path fill="#ff873d" d="M 470.605469 33.371094 L 474.367188 29.617188 L 480.648438 23.347656 L 476.886719 19.59375 L 470.605469 25.863281 L 464.320312 19.59375 L 460.558594 23.347656 L 466.84375 29.617188 Z M 470.605469 33.371094 " fill-opacity="1" fill-rule="nonzero"/></g><g clip-path="url(#f05b559b42)"><path fill="#ff873d" d="M 406.042969 287.757812 L 409.804688 284.003906 L 416.089844 277.734375 L 412.328125 273.980469 L 406.042969 280.25 L 399.761719 273.980469 L 396 277.734375 L 402.28125 284.003906 L 406.042969 287.757812 L 406.042969 287.714844 Z M 406.042969 287.757812 " fill-opacity="1" fill-rule="nonzero"/></g><g clip-path="url(#41718a297a)"><path fill="#ff873d" d="M 406.042969 298.730469 L 409.804688 294.976562 L 416.089844 288.707031 L 412.328125 284.953125 L 406.042969 291.222656 L 399.761719 284.953125 L 396 288.707031 L 402.28125 294.976562 Z M 406.042969 298.730469 " fill-opacity="1" fill-rule="nonzero"/></g><g clip-path="url(#506178dabe)"><path fill="#ff873d" d="M 550.199219 380.832031 L 553.960938 377.082031 L 560.246094 370.808594 L 556.484375 367.054688 L 550.199219 373.328125 L 543.917969 367.054688 L 540.15625 370.808594 L 546.441406 377.082031 L 550.199219 380.832031 L 550.199219 380.792969 Z M 550.199219 380.832031 " fill-opacity="1" fill-rule="nonzero"/></g><g clip-path="url(#1deecbeda3)"><path fill="#ff873d" d="M 550.199219 391.804688 L 553.960938 388.050781 L 560.246094 381.78125 L 556.484375 378.027344 L 550.199219 384.300781 L 543.917969 378.027344 L 540.15625 381.78125 L 546.441406 388.050781 Z M 550.199219 391.804688 " fill-opacity="1" fill-rule="nonzero"/></g><g clip-path="url(#ef72a0813c)"><path fill="#ff873d" d="M 561.972656 133.320312 L 565.734375 129.566406 L 572.019531 123.296875 L 568.257812 119.542969 L 561.972656 125.8125 L 555.691406 119.542969 L 551.929688 123.296875 L 558.210938 129.566406 L 561.972656 133.320312 L 561.972656 133.277344 Z M 561.972656 133.320312 " fill-opacity="1" fill-rule="nonzero"/></g><g clip-path="url(#96f221b3e6)"><path fill="#ff873d" d="M 561.972656 144.292969 L 565.734375 140.539062 L 572.019531 134.269531 L 568.257812 130.515625 L 561.972656 136.785156 L 555.691406 130.515625 L 551.929688 134.269531 L 558.210938 140.539062 Z M 561.972656 144.292969 " fill-opacity="1" fill-rule="nonzero"/></g><g clip-path="url(#ddc3787180)"><path fill="#ff873d" d="M 470.609375 45.925781 L 474.371094 42.171875 L 480.652344 35.902344 L 476.890625 32.148438 L 470.609375 38.417969 L 464.324219 32.148438 L 460.5625 35.902344 L 466.847656 42.171875 L 470.609375 45.925781 L 470.609375 45.886719 Z M 470.609375 45.925781 " fill-opacity="1" fill-rule="nonzero"/></g><g clip-path="url(#61a14fac3b)"><path fill="#ff873d" d="M 470.609375 56.898438 L 474.371094 53.144531 L 480.652344 46.875 L 476.890625 43.121094 L 470.609375 49.390625 L 464.324219 43.121094 L 460.5625 46.875 L 466.847656 53.144531 Z M 470.609375 56.898438 " fill-opacity="1" fill-rule="nonzero"/></g><g clip-path="url(#52fa4cc838)"><path fill="#ff873d" d="M 406.046875 311.285156 L 409.808594 307.53125 L 416.09375 301.261719 L 412.332031 297.507812 L 406.046875 303.777344 L 399.765625 297.507812 L 396.003906 301.261719 L 402.285156 307.53125 L 406.046875 311.285156 L 406.046875 311.242188 Z M 406.046875 311.285156 " fill-opacity="1" fill-rule="nonzero"/></g><g clip-path="url(#1c250815b5)"><path fill="#ff873d" d="M 406.046875 322.257812 L 409.808594 318.503906 L 416.09375 312.234375 L 412.332031 308.480469 L 406.046875 314.75 L 399.765625 308.480469 L 396.003906 312.234375 L 402.285156 318.503906 Z M 406.046875 322.257812 " fill-opacity="1" fill-rule="nonzero"/></g><g clip-path="url(#2e2b74c6d6)"><path fill="#ff873d" d="M 550.203125 404.363281 L 553.964844 400.609375 L 560.25 394.335938 L 556.488281 390.585938 L 550.203125 396.855469 L 543.921875 390.585938 L 540.160156 394.335938 L 546.441406 400.609375 L 550.203125 404.363281 L 550.203125 404.320312 Z M 550.203125 404.363281 " fill-opacity="1" fill-rule="nonzero"/></g><g clip-path="url(#052e73d9c6)"><path fill="#ff873d" d="M 550.203125 415.335938 L 553.964844 411.582031 L 560.25 405.308594 L 556.488281 401.554688 L 550.203125 407.828125 L 543.921875 401.554688 L 540.160156 405.308594 L 546.441406 411.582031 Z M 550.203125 415.335938 " fill-opacity="1" fill-rule="nonzero"/></g><g clip-path="url(#e534437fbc)"><path fill="#ff873d" d="M 212.308594 108.460938 C 205.886719 108.460938 200.683594 113.664062 200.683594 120.085938 C 200.683594 126.507812 205.886719 131.710938 212.308594 131.710938 C 218.730469 131.710938 223.933594 126.507812 223.933594 120.085938 C 223.933594 113.664062 218.730469 108.460938 212.308594 108.460938 Z M 212.308594 129.386719 C 207.167969 129.386719 203.007812 125.222656 203.007812 120.085938 C 203.007812 114.945312 207.167969 110.785156 212.308594 110.785156 C 217.445312 110.785156 221.609375 114.945312 221.609375 120.085938 C 221.609375 125.222656 217.445312 129.386719 212.308594 129.386719 Z M 212.308594 129.386719 " fill-opacity="1" fill-rule="nonzero"/></g><g clip-path="url(#653b7d45dd)"><path fill="#ff873d" d="M 200.539062 379.503906 C 194.117188 379.503906 188.914062 384.703125 188.914062 391.128906 C 188.914062 397.550781 194.117188 402.753906 200.539062 402.753906 C 206.960938 402.753906 212.164062 397.550781 212.164062 391.128906 C 212.164062 384.703125 206.960938 379.503906 200.539062 379.503906 Z M 200.539062 400.425781 C 195.398438 400.425781 191.238281 396.265625 191.238281 391.128906 C 191.238281 385.988281 195.398438 381.828125 200.539062 381.828125 C 205.675781 381.828125 209.839844 385.988281 209.839844 391.128906 C 209.839844 396.265625 205.675781 400.425781 200.539062 400.425781 Z M 200.539062 400.425781 " fill-opacity="1" fill-rule="nonzero"/></g><g clip-path="url(#54169bd234)"><path fill="#ff873d" d="M 387.507812 173.378906 C 382.742188 173.378906 378.882812 177.238281 378.882812 182.003906 C 378.882812 186.765625 382.742188 190.628906 387.507812 190.628906 C 392.273438 190.628906 396.132812 186.765625 396.132812 182.003906 C 396.132812 177.238281 392.273438 173.378906 387.507812 173.378906 Z M 387.507812 188.902344 C 383.695312 188.902344 380.605469 185.8125 380.605469 182.003906 C 380.605469 178.191406 383.695312 175.101562 387.507812 175.101562 C 391.320312 175.101562 394.40625 178.191406 394.40625 182.003906 C 394.40625 185.8125 391.320312 188.902344 387.507812 188.902344 Z M 387.507812 188.902344 " fill-opacity="1" fill-rule="nonzero"/></g><g clip-path="url(#a817f92fd5)"><path fill="#ff873d" d="M 352.523438 554.453125 C 347.757812 554.453125 343.898438 558.3125 343.898438 563.078125 C 343.898438 567.84375 347.757812 571.703125 352.523438 571.703125 C 357.289062 571.703125 361.148438 567.84375 361.148438 563.078125 C 361.148438 558.3125 357.289062 554.453125 352.523438 554.453125 Z M 352.523438 569.980469 C 348.710938 569.980469 345.625 566.890625 345.625 563.078125 C 345.625 559.265625 348.710938 556.179688 352.523438 556.179688 C 356.335938 556.179688 359.425781 559.265625 359.425781 563.078125 C 359.425781 566.890625 356.335938 569.980469 352.523438 569.980469 Z M 352.523438 569.980469 " fill-opacity="1" fill-rule="nonzero"/></g><g clip-path="url(#b8c828e5a7)"><path fill="#ff873d" d="M 261.160156 467.0625 C 256.394531 467.0625 252.535156 470.921875 252.535156 475.6875 C 252.535156 480.453125 256.394531 484.3125 261.160156 484.3125 C 265.925781 484.3125 269.785156 480.453125 269.785156 475.6875 C 269.785156 470.921875 265.925781 467.0625 261.160156 467.0625 Z M 261.160156 482.585938 C 257.347656 482.585938 254.257812 479.5 254.257812 475.6875 C 254.257812 471.875 257.347656 468.785156 261.160156 468.785156 C 264.972656 468.785156 268.058594 471.875 268.058594 475.6875 C 268.058594 479.5 264.972656 482.585938 261.160156 482.585938 Z M 261.160156 482.585938 " fill-opacity="1" fill-rule="nonzero"/></g><g clip-path="url(#0336466892)"><path fill="#ff873d" d="M 352.417969 109.792969 L 356.179688 106.039062 L 362.460938 99.769531 L 358.699219 96.015625 L 352.417969 102.285156 L 346.132812 96.015625 L 342.371094 99.769531 L 348.65625 106.039062 L 352.417969 109.792969 L 352.417969 109.75 Z M 352.417969 109.792969 " fill-opacity="1" fill-rule="nonzero"/></g><g clip-path="url(#4b51ec59bb)"><path fill="#ff873d" d="M 352.417969 120.765625 L 356.179688 117.011719 L 362.460938 110.742188 L 358.699219 106.988281 L 352.417969 113.257812 L 346.132812 106.988281 L 342.371094 110.742188 L 348.65625 117.011719 Z M 352.417969 120.765625 " fill-opacity="1" fill-rule="nonzero"/></g><g clip-path="url(#56ce57a992)"><path fill="#ff873d" d="M 261.050781 22.398438 L 264.8125 18.644531 L 271.097656 12.375 L 267.335938 8.621094 L 261.050781 14.890625 L 254.769531 8.621094 L 251.007812 12.375 L 257.289062 18.644531 L 261.050781 22.398438 L 261.050781 22.359375 Z M 261.050781 22.398438 " fill-opacity="1" fill-rule="nonzero"/></g><g clip-path="url(#405c773aa2)"><path fill="#ff873d" d="M 261.050781 33.371094 L 264.8125 29.617188 L 271.097656 23.347656 L 267.335938 19.59375 L 261.050781 25.863281 L 254.769531 19.59375 L 251.007812 23.347656 L 257.289062 29.617188 Z M 261.050781 33.371094 " fill-opacity="1" fill-rule="nonzero"/></g><g clip-path="url(#0c5d9e66a6)"><path fill="#ff873d" d="M 196.492188 287.757812 L 200.253906 284.003906 L 206.535156 277.734375 L 202.773438 273.980469 L 196.492188 280.25 L 190.207031 273.980469 L 186.445312 277.734375 L 192.730469 284.003906 L 196.492188 287.757812 L 196.492188 287.714844 Z M 196.492188 287.757812 " fill-opacity="1" fill-rule="nonzero"/></g><g clip-path="url(#260181da44)"><path fill="#ff873d" d="M 196.492188 298.730469 L 200.253906 294.976562 L 206.535156 288.707031 L 202.773438 284.953125 L 196.492188 291.222656 L 190.207031 284.953125 L 186.445312 288.707031 L 192.730469 294.976562 Z M 196.492188 298.730469 " fill-opacity="1" fill-rule="nonzero"/></g><g clip-path="url(#ec0dff2f97)"><path fill="#ff873d" d="M 340.648438 380.832031 L 344.410156 377.082031 L 350.691406 370.808594 L 346.929688 367.054688 L 340.648438 373.328125 L 334.363281 367.054688 L 330.601562 370.808594 L 336.886719 377.082031 L 340.648438 380.832031 L 340.648438 380.792969 Z M 340.648438 380.832031 " fill-opacity="1" fill-rule="nonzero"/></g><g clip-path="url(#8891c4fb50)"><path fill="#ff873d" d="M 340.648438 391.804688 L 344.410156 388.050781 L 350.691406 381.78125 L 346.929688 378.027344 L 340.648438 384.300781 L 334.363281 378.027344 L 330.601562 381.78125 L 336.886719 388.050781 Z M 340.648438 391.804688 " fill-opacity="1" fill-rule="nonzero"/></g><g clip-path="url(#caf2caeb0d)"><path fill="#ff873d" d="M 352.421875 133.320312 L 356.183594 129.566406 L 362.464844 123.296875 L 358.703125 119.542969 L 352.421875 125.8125 L 346.136719 119.542969 L 342.375 123.296875 L 348.660156 129.566406 L 352.421875 133.320312 L 352.421875 133.277344 Z M 352.421875 133.320312 " fill-opacity="1" fill-rule="nonzero"/></g><g clip-path="url(#5c0cc18403)"><path fill="#ff873d" d="M 352.421875 144.292969 L 356.183594 140.539062 L 362.464844 134.269531 L 358.703125 130.515625 L 352.421875 136.785156 L 346.136719 130.515625 L 342.375 134.269531 L 348.660156 140.539062 Z M 352.421875 144.292969 " fill-opacity="1" fill-rule="nonzero"/></g><g clip-path="url(#15def14e7b)"><path fill="#ff873d" d="M 261.054688 45.925781 L 264.816406 42.171875 L 271.097656 35.902344 L 267.335938 32.148438 L 261.054688 38.417969 L 254.773438 32.148438 L 251.011719 35.902344 L 257.292969 42.171875 L 261.054688 45.925781 L 261.054688 45.886719 Z M 261.054688 45.925781 " fill-opacity="1" fill-rule="nonzero"/></g><g clip-path="url(#48763738b6)"><path fill="#ff873d" d="M 261.054688 56.898438 L 264.816406 53.144531 L 271.097656 46.875 L 267.335938 43.121094 L 261.054688 49.390625 L 254.773438 43.121094 L 251.011719 46.875 L 257.292969 53.144531 Z M 261.054688 56.898438 " fill-opacity="1" fill-rule="nonzero"/></g><g clip-path="url(#2baefaa5c8)"><path fill="#ff873d" d="M 196.496094 311.285156 L 200.257812 307.53125 L 206.539062 301.261719 L 202.777344 297.507812 L 196.496094 303.777344 L 190.210938 297.507812 L 186.449219 301.261719 L 192.734375 307.53125 L 196.496094 311.285156 L 196.496094 311.242188 Z M 196.496094 311.285156 " fill-opacity="1" fill-rule="nonzero"/></g><g clip-path="url(#5ac7851579)"><path fill="#ff873d" d="M 196.496094 322.257812 L 200.257812 318.503906 L 206.539062 312.234375 L 202.777344 308.480469 L 196.496094 314.75 L 190.210938 308.480469 L 186.449219 312.234375 L 192.734375 318.503906 Z M 196.496094 322.257812 " fill-opacity="1" fill-rule="nonzero"/></g><g clip-path="url(#f8131f0d9c)"><path fill="#ff873d" d="M 340.652344 404.363281 L 344.414062 400.609375 L 350.695312 394.335938 L 346.933594 390.585938 L 340.652344 396.855469 L 334.367188 390.585938 L 330.605469 394.335938 L 336.890625 400.609375 L 340.652344 404.363281 L 340.652344 404.320312 Z M 340.652344 404.363281 " fill-opacity="1" fill-rule="nonzero"/></g><g clip-path="url(#8d21da7ed8)"><path fill="#ff873d" d="M 340.652344 415.335938 L 344.414062 411.582031 L 350.695312 405.308594 L 346.933594 401.554688 L 340.652344 407.828125 L 334.367188 401.554688 L 330.605469 405.308594 L 336.890625 411.582031 Z M 340.652344 415.335938 " fill-opacity="1" fill-rule="nonzero"/></g><g clip-path="url(#2dbdf08dee)"><path fill="#ff873d" d="M 178.257812 173.378906 C 173.492188 173.378906 169.632812 177.238281 169.632812 182.003906 C 169.632812 186.765625 173.492188 190.628906 178.257812 190.628906 C 183.023438 190.628906 186.882812 186.765625 186.882812 182.003906 C 186.882812 177.238281 183.023438 173.378906 178.257812 173.378906 Z M 178.257812 188.902344 C 174.445312 188.902344 171.355469 185.8125 171.355469 182.003906 C 171.355469 178.191406 174.445312 175.101562 178.257812 175.101562 C 182.070312 175.101562 185.15625 178.191406 185.15625 182.003906 C 185.15625 185.8125 182.070312 188.902344 178.257812 188.902344 Z M 178.257812 188.902344 " fill-opacity="1" fill-rule="nonzero"/></g><g clip-path="url(#b3fa5b47e2)"><path fill="#ff873d" d="M 143.273438 554.453125 C 138.507812 554.453125 134.648438 558.3125 134.648438 563.078125 C 134.648438 567.84375 138.507812 571.703125 143.273438 571.703125 C 148.039062 571.703125 151.898438 567.84375 151.898438 563.078125 C 151.898438 558.3125 148.039062 554.453125 143.273438 554.453125 Z M 143.273438 569.980469 C 139.460938 569.980469 136.375 566.890625 136.375 563.078125 C 136.375 559.265625 139.460938 556.179688 143.273438 556.179688 C 147.085938 556.179688 150.175781 559.265625 150.175781 563.078125 C 150.175781 566.890625 147.085938 569.980469 143.273438 569.980469 Z M 143.273438 569.980469 " fill-opacity="1" fill-rule="nonzero"/></g><g clip-path="url(#5969c0e92f)"><path fill="#ff873d" d="M 51.910156 467.0625 C 47.144531 467.0625 43.285156 470.921875 43.285156 475.6875 C 43.285156 480.453125 47.144531 484.3125 51.910156 484.3125 C 56.675781 484.3125 60.535156 480.453125 60.535156 475.6875 C 60.535156 470.921875 56.675781 467.0625 51.910156 467.0625 Z M 51.910156 482.585938 C 48.097656 482.585938 45.007812 479.5 45.007812 475.6875 C 45.007812 471.875 48.097656 468.785156 51.910156 468.785156 C 55.722656 468.785156 58.808594 471.875 58.808594 475.6875 C 58.808594 479.5 55.722656 482.585938 51.910156 482.585938 Z M 51.910156 482.585938 " fill-opacity="1" fill-rule="nonzero"/></g><g clip-path="url(#83153c7d02)"><path fill="#ff873d" d="M 143.167969 109.792969 L 146.929688 106.039062 L 153.210938 99.769531 L 149.449219 96.015625 L 143.167969 102.285156 L 136.882812 96.015625 L 133.121094 99.769531 L 139.40625 106.039062 L 143.167969 109.792969 L 143.167969 109.75 Z M 143.167969 109.792969 " fill-opacity="1" fill-rule="nonzero"/></g><g clip-path="url(#b354392fd7)"><path fill="#ff873d" d="M 143.167969 120.765625 L 146.929688 117.011719 L 153.210938 110.742188 L 149.449219 106.988281 L 143.167969 113.257812 L 136.882812 106.988281 L 133.121094 110.742188 L 139.40625 117.011719 Z M 143.167969 120.765625 " fill-opacity="1" fill-rule="nonzero"/></g><g clip-path="url(#850a18be56)"><path fill="#ff873d" d="M 51.800781 22.398438 L 55.5625 18.644531 L 61.847656 12.375 L 58.085938 8.621094 L 51.800781 14.890625 L 45.519531 8.621094 L 41.757812 12.375 L 48.039062 18.644531 L 51.800781 22.398438 L 51.800781 22.359375 Z M 51.800781 22.398438 " fill-opacity="1" fill-rule="nonzero"/></g><g clip-path="url(#c9e77b0416)"><path fill="#ff873d" d="M 51.800781 33.371094 L 55.5625 29.617188 L 61.847656 23.347656 L 58.085938 19.59375 L 51.800781 25.863281 L 45.519531 19.59375 L 41.757812 23.347656 L 48.039062 29.617188 Z M 51.800781 33.371094 " fill-opacity="1" fill-rule="nonzero"/></g><g clip-path="url(#868c4621dc)"><path fill="#ff873d" d="M 131.398438 380.832031 L 135.160156 377.082031 L 141.441406 370.808594 L 137.679688 367.054688 L 131.398438 373.328125 L 125.113281 367.054688 L 121.351562 370.808594 L 127.636719 377.082031 L 131.398438 380.832031 L 131.398438 380.792969 Z M 131.398438 380.832031 " fill-opacity="1" fill-rule="nonzero"/></g><g clip-path="url(#13935f55f5)"><path fill="#ff873d" d="M 131.398438 391.804688 L 135.160156 388.050781 L 141.441406 381.78125 L 137.679688 378.027344 L 131.398438 384.300781 L 125.113281 378.027344 L 121.351562 381.78125 L 127.636719 388.050781 Z M 131.398438 391.804688 " fill-opacity="1" fill-rule="nonzero"/></g><g clip-path="url(#cedc3c5ebb)"><path fill="#ff873d" d="M 143.171875 133.320312 L 146.933594 129.566406 L 153.214844 123.296875 L 149.453125 119.542969 L 143.171875 125.8125 L 136.886719 119.542969 L 133.125 123.296875 L 139.410156 129.566406 L 143.171875 133.320312 L 143.171875 133.277344 Z M 143.171875 133.320312 " fill-opacity="1" fill-rule="nonzero"/></g><g clip-path="url(#f0b66bdcf7)"><path fill="#ff873d" d="M 143.171875 144.292969 L 146.933594 140.539062 L 153.214844 134.269531 L 149.453125 130.515625 L 143.171875 136.785156 L 136.886719 130.515625 L 133.125 134.269531 L 139.410156 140.539062 Z M 143.171875 144.292969 " fill-opacity="1" fill-rule="nonzero"/></g><g clip-path="url(#c90152bac0)"><path fill="#ff873d" d="M 51.804688 45.925781 L 55.566406 42.171875 L 61.847656 35.902344 L 58.085938 32.148438 L 51.804688 38.417969 L 45.523438 32.148438 L 41.761719 35.902344 L 48.042969 42.171875 L 51.804688 45.925781 L 51.804688 45.886719 Z M 51.804688 45.925781 " fill-opacity="1" fill-rule="nonzero"/></g><g clip-path="url(#b156b617a6)"><path fill="#ff873d" d="M 51.804688 56.898438 L 55.566406 53.144531 L 61.847656 46.875 L 58.085938 43.121094 L 51.804688 49.390625 L 45.523438 43.121094 L 41.761719 46.875 L 48.042969 53.144531 Z M 51.804688 56.898438 " fill-opacity="1" fill-rule="nonzero"/></g><g clip-path="url(#edfe383adf)"><path fill="#ff873d" d="M 131.402344 404.363281 L 135.164062 400.609375 L 141.445312 394.335938 L 137.683594 390.585938 L 131.402344 396.855469 L 125.117188 390.585938 L 121.355469 394.335938 L 127.640625 400.609375 L 131.402344 404.363281 L 131.402344 404.320312 Z M 131.402344 404.363281 " fill-opacity="1" fill-rule="nonzero"/></g><g clip-path="url(#d91a2c3118)"><path fill="#ff873d" d="M 131.402344 415.335938 L 135.164062 411.582031 L 141.445312 405.308594 L 137.683594 401.554688 L 131.402344 407.828125 L 125.117188 401.554688 L 121.355469 405.308594 L 127.640625 411.582031 Z M 131.402344 415.335938 " fill-opacity="1" fill-rule="nonzero"/></g></svg>