<svg xmlns="http://www.w3.org/2000/svg" xmlns:xlink="http://www.w3.org/1999/xlink" width="1919" zoomAndPan="magnify" viewBox="0 0 1439.25 735.749978" height="981" preserveAspectRatio="xMidYMid meet" version="1.0"><defs><g/><clipPath id="d026fff5cc"><path d="M 0 0.0664062 L 1438.5 0.0664062 L 1438.5 735.433594 L 0 735.433594 Z M 0 0.0664062 " clip-rule="nonzero"/></clipPath></defs><g clip-path="url(#d026fff5cc)"><path fill="#ffffff" d="M 0 0.0664062 L 1439.25 0.0664062 L 1439.25 743.679688 L 0 743.679688 Z M 0 0.0664062 " fill-opacity="1" fill-rule="nonzero"/><path fill="#ffffff" d="M 0 0.0664062 L 1438.5 0.0664062 L 1438.5 735.433594 L 0 735.433594 Z M 0 0.0664062 " fill-opacity="1" fill-rule="nonzero"/><path fill="#ffffff" d="M 0 0.0664062 L 1438.5 0.0664062 L 1438.5 735.433594 L 0 735.433594 Z M 0 0.0664062 " fill-opacity="1" fill-rule="nonzero"/></g><g fill="#ff873d" fill-opacity="1"><g transform="translate(104.634236, 404.573074)"><g><path d="M 5.941406 0 L 25.105469 0 L 25.105469 -23.40625 L 72.644531 -23.40625 C 91.929688 -23.40625 105.148438 -35.292969 105.148438 -54.210938 C 105.148438 -73.128906 91.929688 -84.894531 72.644531 -84.894531 L 5.941406 -84.894531 Z M 25.105469 -39.535156 L 25.105469 -68.765625 L 66.582031 -68.765625 C 74.101562 -68.765625 85.984375 -68.765625 85.984375 -54.210938 C 85.984375 -39.535156 74.101562 -39.535156 66.582031 -39.535156 Z M 25.105469 -39.535156 "/></g></g></g><g fill="#ff873d" fill-opacity="1"><g transform="translate(214.508941, 404.573074)"><g><path d="M 5.941406 0 L 93.261719 0 L 93.261719 -16.128906 L 25.105469 -16.128906 L 25.105469 -84.894531 L 5.941406 -84.894531 Z M 5.941406 0 "/></g></g></g><g fill="#ff873d" fill-opacity="1"><g transform="translate(312.498752, 404.573074)"><g><path d="M 4.730469 0 L 25.953125 0 L 36.261719 -18.796875 L 90.351562 -18.796875 L 100.660156 0 L 121.882812 0 L 75.675781 -84.894531 L 50.9375 -84.894531 Z M 43.660156 -33.59375 L 63.308594 -69.25 L 82.953125 -33.59375 Z M 43.660156 -33.59375 "/></g></g></g><g fill="#ff873d" fill-opacity="1"><g transform="translate(439.109348, 404.573074)"><g><path d="M 47.296875 0 L 66.460938 0 L 66.460938 -68.765625 L 109.027344 -68.765625 L 109.027344 -84.894531 L 4.730469 -84.894531 L 4.730469 -68.765625 L 47.296875 -68.765625 Z M 47.296875 0 "/></g></g></g><g fill="#ff873d" fill-opacity="1"><g transform="translate(552.864831, 404.573074)"><g><path d="M 5.941406 0 L 101.753906 0 L 101.753906 -16.128906 L 33.59375 -16.128906 L 101.753906 -68.765625 L 101.753906 -84.894531 L 5.941406 -84.894531 L 5.941406 -68.765625 L 74.101562 -68.765625 L 5.941406 -16.128906 Z M 5.941406 0 "/></g></g></g><g fill="#ff873d" fill-opacity="1"><g transform="translate(660.556578, 404.573074)"><g><path d="M 5.941406 0 L 25.105469 0 L 25.105469 -34.441406 L 99.570312 -34.441406 L 99.570312 0 L 118.730469 0 L 118.730469 -84.894531 L 99.570312 -84.894531 L 99.570312 -50.453125 L 25.105469 -50.453125 L 25.105469 -84.894531 L 5.941406 -84.894531 Z M 5.941406 0 "/></g></g></g><g fill="#ff873d" fill-opacity="1"><g transform="translate(785.226749, 404.573074)"><g><path d="M 4.730469 0 L 25.953125 0 L 36.261719 -18.796875 L 90.351562 -18.796875 L 100.660156 0 L 121.882812 0 L 75.675781 -84.894531 L 50.9375 -84.894531 Z M 43.660156 -33.59375 L 63.308594 -69.25 L 82.953125 -33.59375 Z M 43.660156 -33.59375 "/></g></g></g><g fill="#ff873d" fill-opacity="1"><g transform="translate(911.83736, 404.573074)"><g><path d="M 5.941406 0 L 93.261719 0 L 93.261719 -16.128906 L 25.105469 -16.128906 L 25.105469 -84.894531 L 5.941406 -84.894531 Z M 5.941406 0 "/></g></g></g><g fill="#ff873d" fill-opacity="1"><g transform="translate(1009.827201, 404.573074)"><g><path d="M 47.296875 0 L 66.460938 0 L 66.460938 -68.765625 L 109.027344 -68.765625 L 109.027344 -84.894531 L 4.730469 -84.894531 L 4.730469 -68.765625 L 47.296875 -68.765625 Z M 47.296875 0 "/></g></g></g><g fill="#ff873d" fill-opacity="1"><g transform="translate(1123.582684, 404.573074)"><g><path d="M 5.941406 0 L 95.6875 0 L 95.6875 -15.402344 L 25.105469 -15.402344 L 25.105469 -35.171875 L 95.6875 -35.171875 L 95.6875 -49.722656 L 25.105469 -49.722656 L 25.105469 -69.492188 L 95.6875 -69.492188 L 95.6875 -84.894531 L 5.941406 -84.894531 Z M 5.941406 0 "/></g></g></g><g fill="#ff873d" fill-opacity="1"><g transform="translate(1223.99803, 404.573074)"><g><path d="M 5.941406 0 L 25.105469 0 L 25.105469 -23.40625 L 64.761719 -23.40625 L 79.074219 0 L 101.632812 0 L 85.742188 -25.710938 C 97.75 -29.835938 105.148438 -39.902344 105.148438 -54.210938 C 105.148438 -73.128906 91.929688 -84.894531 72.644531 -84.894531 L 5.941406 -84.894531 Z M 25.105469 -39.535156 L 25.105469 -68.765625 L 66.582031 -68.765625 C 74.101562 -68.765625 85.984375 -68.765625 85.984375 -54.210938 C 85.984375 -39.535156 74.101562 -39.535156 66.582031 -39.535156 Z M 25.105469 -39.535156 "/></g></g></g><path stroke-linecap="butt" transform="matrix(0.957509, 0, 0, 0.957509, 65.271647, 138.432506)" fill="none" stroke-linejoin="miter" d="M 47.325194 94.998631 L 67.331538 94.998631 L 67.331538 70.541447 L 116.963914 70.541447 C 137.125282 70.541447 150.9184 58.139472 150.9184 38.381984 C 150.9184 18.620416 137.125282 6.344909 116.963914 6.344909 L 47.325194 6.344909 Z M 67.331538 53.717189 L 67.331538 23.197724 L 110.656857 23.197724 C 118.510082 23.197724 130.907977 23.197724 130.907977 38.381984 C 130.907977 53.717189 118.510082 53.717189 110.656857 53.717189 Z M 162.076097 94.998631 L 253.267328 94.998631 L 253.267328 78.145816 L 182.082441 78.145816 L 182.082441 6.344909 L 162.076097 6.344909 Z M 263.144032 94.998631 L 285.316641 94.998631 L 296.078618 75.36353 L 352.572877 75.36353 L 363.334853 94.998631 L 385.474826 94.998631 L 337.237672 6.344909 L 311.385266 6.344909 Z M 303.809454 59.901858 L 324.309429 22.671456 L 344.84612 59.901858 Z M 439.810978 94.998631 L 459.849958 94.998631 L 459.849958 23.197724 L 504.284928 23.197724 L 504.284928 6.344909 L 395.376008 6.344909 L 395.376008 23.197724 L 439.810978 23.197724 Z M 515.446705 94.998631 L 615.511059 94.998631 L 615.511059 78.145816 L 544.330252 78.145816 L 615.511059 23.197724 L 615.511059 6.344909 L 515.446705 6.344909 L 515.446705 23.197724 L 586.631592 23.197724 L 515.446705 78.145816 Z M 627.917113 94.998631 L 647.923457 94.998631 L 647.923457 59.036983 L 725.696893 59.036983 L 725.696893 94.998631 L 745.703236 94.998631 L 745.703236 6.344909 L 725.696893 6.344909 L 725.696893 42.306556 L 647.923457 42.306556 L 647.923457 6.344909 L 627.917113 6.344909 Z M 756.852775 94.998631 L 779.025384 94.998631 L 789.783282 75.36353 L 846.28162 75.36353 L 857.043596 94.998631 L 879.183569 94.998631 L 830.942335 6.344909 L 805.089929 6.344909 Z M 797.514118 59.901858 L 818.018172 22.671456 L 838.550783 59.901858 Z M 890.349426 94.998631 L 981.540656 94.998631 L 981.540656 78.145816 L 910.355769 78.145816 L 910.355769 6.344909 L 890.349426 6.344909 Z M 1035.85641 94.998631 L 1055.89539 94.998631 L 1055.89539 23.197724 L 1100.33036 23.197724 L 1100.33036 6.344909 L 991.42144 6.344909 L 991.42144 23.197724 L 1035.85641 23.197724 Z M 1111.492138 94.998631 L 1205.216798 94.998631 L 1205.216798 78.920939 L 1131.498481 78.920939 L 1131.498481 58.26186 L 1205.216798 58.26186 L 1205.216798 43.08168 L 1131.498481 43.08168 L 1131.498481 22.422601 L 1205.216798 22.422601 L 1205.216798 6.344909 L 1111.492138 6.344909 Z M 1216.362257 94.998631 L 1236.3686 94.998631 L 1236.3686 70.541447 L 1277.776509 70.541447 L 1292.740471 94.998631 L 1316.275665 94.998631 L 1299.700263 68.158962 C 1312.224626 63.83051 1319.955462 53.317389 1319.955462 38.381984 C 1319.955462 18.620416 1306.162345 6.344909 1286.000976 6.344909 L 1216.362257 6.344909 Z M 1236.3686 53.717189 L 1236.3686 23.197724 L 1279.69392 23.197724 C 1287.547144 23.197724 1299.945039 23.197724 1299.945039 38.381984 C 1299.945039 53.717189 1287.547144 53.717189 1279.69392 53.717189 Z M 1236.3686 53.717189 " stroke="#ff873d" stroke-width="4.750012" stroke-opacity="1" stroke-miterlimit="4"/><path stroke-linecap="butt" transform="matrix(0.957509, 0, 0, 0.957509, 65.271647, 487.911601)" fill="none" stroke-linejoin="miter" d="M 47.325194 95.000065 L 67.331538 95.000065 L 67.331538 70.538802 L 116.963914 70.538802 C 137.125282 70.538802 150.9184 58.140907 150.9184 38.379339 C 150.9184 18.621851 137.125282 6.342264 116.963914 6.342264 L 47.325194 6.342264 Z M 67.331538 53.718624 L 67.331538 23.199159 L 110.656857 23.199159 C 118.510082 23.199159 130.907977 23.199159 130.907977 38.379339 C 130.907977 53.718624 118.510082 53.718624 110.656857 53.718624 Z M 162.076097 95.000065 L 253.267328 95.000065 L 253.267328 78.14725 L 182.082441 78.14725 L 182.082441 6.342264 L 162.076097 6.342264 Z M 263.144032 95.000065 L 285.316641 95.000065 L 296.078618 75.364965 L 352.572877 75.364965 L 363.334853 95.000065 L 385.474826 95.000065 L 337.237672 6.342264 L 311.385266 6.342264 Z M 303.809454 59.903293 L 324.309429 22.672891 L 344.84612 59.903293 Z M 439.810978 95.000065 L 459.849958 95.000065 L 459.849958 23.199159 L 504.284928 23.199159 L 504.284928 6.342264 L 395.376008 6.342264 L 395.376008 23.199159 L 439.810978 23.199159 Z M 515.446705 95.000065 L 615.511059 95.000065 L 615.511059 78.14725 L 544.330252 78.14725 L 615.511059 23.199159 L 615.511059 6.342264 L 515.446705 6.342264 L 515.446705 23.199159 L 586.631592 23.199159 L 515.446705 78.14725 Z M 627.917113 95.000065 L 647.923457 95.000065 L 647.923457 59.038418 L 725.696893 59.038418 L 725.696893 95.000065 L 745.703236 95.000065 L 745.703236 6.342264 L 725.696893 6.342264 L 725.696893 42.307991 L 647.923457 42.307991 L 647.923457 6.342264 L 627.917113 6.342264 Z M 756.852775 95.000065 L 779.025384 95.000065 L 789.783282 75.364965 L 846.28162 75.364965 L 857.043596 95.000065 L 879.183569 95.000065 L 830.942335 6.342264 L 805.089929 6.342264 Z M 797.514118 59.903293 L 818.018172 22.672891 L 838.550783 59.903293 Z M 890.349426 95.000065 L 981.540656 95.000065 L 981.540656 78.14725 L 910.355769 78.14725 L 910.355769 6.342264 L 890.349426 6.342264 Z M 1035.85641 95.000065 L 1055.89539 95.000065 L 1055.89539 23.199159 L 1100.33036 23.199159 L 1100.33036 6.342264 L 991.42144 6.342264 L 991.42144 23.199159 L 1035.85641 23.199159 Z M 1111.492138 95.000065 L 1205.216798 95.000065 L 1205.216798 78.918294 L 1131.498481 78.918294 L 1131.498481 58.263295 L 1205.216798 58.263295 L 1205.216798 43.079035 L 1131.498481 43.079035 L 1131.498481 22.424036 L 1205.216798 22.424036 L 1205.216798 6.342264 L 1111.492138 6.342264 Z M 1216.362257 95.000065 L 1236.3686 95.000065 L 1236.3686 70.538802 L 1277.776509 70.538802 L 1292.740471 95.000065 L 1316.275665 95.000065 L 1299.700263 68.160397 C 1312.224626 63.827865 1319.955462 53.314744 1319.955462 38.379339 C 1319.955462 18.621851 1306.162345 6.342264 1286.000976 6.342264 L 1216.362257 6.342264 Z M 1236.3686 53.718624 L 1236.3686 23.199159 L 1279.69392 23.199159 C 1287.547144 23.199159 1299.945039 23.199159 1299.945039 38.379339 C 1299.945039 53.718624 1287.547144 53.718624 1279.69392 53.718624 Z M 1236.3686 53.718624 " stroke="#ff873d" stroke-width="4.750012" stroke-opacity="1" stroke-miterlimit="4"/></svg>